# xmcd
#
# Track frame offsets:
#	150
#	20474
#	41673
#
# Disc length: 831 seconds
#
# Revision: 0
# Processed by: cddbd v1.5.1PL0 Copyright (c) Steve Scherf et al.
# Submitted via: audiograbber 1.83.01
#
DISCID=1c033d03
DTITLE=Eric Goran - One Man Story
DYEAR=1900
DGENRE=Country
TTITLE0=One Man Story
TTITLE1=Heart of mine
TTITLE2=I'm still running
EXTD=
EXTT0=
EXTT1=
EXTT2=
PLAYORDER=
